<?xml version="1.0" encoding="UTF-8" standalone="no"?>
<!-- Generator: Adobe Illustrator 22.1.0, SVG Export Plug-In . SVG Version: 6.00 Build 0)  -->

<svg
   version="1.1"
   id="Layer_1"
   x="0px"
   y="0px"
   viewBox="0 0 70 46"
   xml:space="preserve"
   sodipodi:docname="logo.svg"
   width="70"
   height="46"
   inkscape:version="1.1.1 (3bf5ae0d25, 2021-09-20)"
   xmlns:inkscape="http://www.inkscape.org/namespaces/inkscape"
   xmlns:sodipodi="http://sodipodi.sourceforge.net/DTD/sodipodi-0.dtd"
   xmlns="http://www.w3.org/2000/svg"
   xmlns:svg="http://www.w3.org/2000/svg"><defs
   id="defs49" /><sodipodi:namedview
   id="namedview47"
   pagecolor="#ffffff"
   bordercolor="#111111"
   borderopacity="1"
   inkscape:pageshadow="0"
   inkscape:pageopacity="0"
   inkscape:pagecheckerboard="1"
   showgrid="false"
   inkscape:zoom="6.7524272"
   inkscape:cx="21.17757"
   inkscape:cy="25.768512"
   inkscape:window-width="1920"
   inkscape:window-height="999"
   inkscape:window-x="0"
   inkscape:window-y="28"
   inkscape:window-maximized="1"
   inkscape:current-layer="g40"
   fit-margin-top="0"
   fit-margin-left="0"
   fit-margin-right="0"
   fit-margin-bottom="0" />
<style
   type="text/css"
   id="style2">
	.st0{fill:#211E1F;}
	.st1{fill:#009FE3;}
	.st2{fill:#231F20;}
</style>
<g
   id="g40"
   transform="translate(-3)">
	<polygon
   class="st0"
   points="8.3,9.8 8.3,26.4 16.5,26.4 16.5,30.9 3,30.9 3,9.8 "
   id="polygon4"
   style="fill:#000000" />
	<path
   class="st0"
   d="M 38.1,30.9 V 9.8 h 10.6 c 5.1,0 7.6,2.3 7.6,6.9 0,1.4 -0.4,2.6 -1.2,3.6 -0.8,1 -1.8,1.7 -3.2,2.1 l 4.8,8.5 h -5.9 l -4.1,-7.6 h -3.4 v 7.6 h -5.2 m 5.2,-17.2 v 5.7 h 4.8 c 1.9,0 2.8,-0.9 2.8,-2.8 0,-1.9 -0.9,-2.8 -2.8,-2.8 h -4.8 z"
   id="path6"
   style="fill:#000000" />
	<path
   class="st0"
   d="m 72.6,19.2 v 8.3 c 0,1.5 0.1,2.6 0.4,3.3 h -4.3 c -0.2,-0.5 -0.3,-1 -0.3,-1.6 h -0.1 c -0.4,0.6 -1.1,1.1 -2,1.5 -0.9,0.4 -1.8,0.6 -2.7,0.6 -1.6,0 -2.8,-0.4 -3.8,-1.2 -1,-0.9 -1.5,-2 -1.5,-3.5 0,-1.8 0.7,-3.2 2.2,-4.1 1.2,-0.8 3.2,-1.4 5.9,-1.8 l 1.7,-0.2 v -1.3 c 0,-1.1 -0.7,-1.7 -2.2,-1.7 -0.8,0 -1.3,0.2 -1.7,0.5 -0.4,0.3 -0.6,0.9 -0.7,1.6 h -4.4 c 0.1,-3.3 2.3,-5 6.5,-5 2.3,0 4,0.3 5.1,0.9 1.3,0.9 1.9,2.1 1.9,3.7 m -4.4,5.1 v -1.1 l -3.1,0.9 c -1.5,0.4 -2.2,1.1 -2.2,2 0,1.2 0.7,1.8 2.2,1.8 0.9,0 1.7,-0.3 2.3,-0.9 0.5,-0.7 0.8,-1.6 0.8,-2.7"
   id="path8"
   style="fill:#000000" />
	<path
   class="st0"
   d="m 26.6,14.7 c 2.5,0 4.5,0.7 6.1,2.2 1.5,1.5 2.3,3.5 2.3,6.1 0,2.6 -0.8,4.6 -2.3,6.1 -1.5,1.5 -3.6,2.2 -6.1,2.2 -2.5,0 -4.5,-0.7 -6.1,-2.2 -1.5,-1.5 -2.3,-3.5 -2.3,-6.1 0,-2.6 0.8,-4.6 2.3,-6.1 1.5,-1.5 3.6,-2.2 6.1,-2.2 m 0,3.5 c -1.3,0 -2.2,0.5 -2.9,1.4 -0.6,0.8 -0.9,2 -0.9,3.4 0,1.4 0.3,2.6 0.9,3.4 0.7,0.9 1.6,1.4 2.9,1.4 2.5,0 3.8,-1.6 3.8,-5 0,-1.4 -0.3,-2.4 -0.9,-3.3 -0.7,-0.8 -1.7,-1.3 -2.9,-1.3"
   id="path10"
   style="fill:#000000" />
	<path
   class="st1"
   d="m 26.4,11.5 c 2.3,0 4.5,0.7 6.3,1.8 L 33.6,12 c -2.1,-1.3 -4.5,-2.1 -7.2,-2.1 -2.5,0 -4.9,0.7 -6.9,2 l 0.9,1.3 c 1.8,-1.1 3.8,-1.7 6,-1.7"
   id="path12"
   style="fill:#000000" />
	<path
   class="st1"
   d="m 16.7,7.9 1.2,1.7 c 2.5,-1.6 5.4,-2.5 8.5,-2.5 3.2,0 6.3,1 8.8,2.6 L 36.4,8 C 33.5,6.1 30.1,5 26.4,5 22.9,5 19.5,6.1 16.7,7.9"
   id="path14"
   style="fill:#000000" />
	<path
   class="st1"
   d="m 26.4,2.6 c 4.2,0 8.1,1.3 11.4,3.5 L 39.3,3.9 C 35.6,1.5 31.2,0 26.4,0 21.8,0 17.4,1.4 13.8,3.7 l 1.5,2.2 c 3.2,-2.1 7,-3.3 11.1,-3.3"
   id="path16"
   style="fill:#000000" />
	<path
   class="st1"
   d="m 26.7,34.5 c -2.3,0 -4.5,-0.7 -6.3,-1.8 L 19.5,34 c 2.1,1.3 4.5,2.1 7.2,2.1 2.5,0 4.9,-0.7 6.9,-2 l -0.9,-1.3 c -1.7,1.1 -3.8,1.7 -6,1.7"
   id="path18"
   style="fill:#000000" />
	<path
   class="st1"
   d="m 36.4,38.1 -1.2,-1.7 c -2.5,1.6 -5.4,2.5 -8.5,2.5 -3.2,0 -6.3,-1 -8.8,-2.6 L 16.7,38 c 2.9,1.9 6.3,3 10,3 3.6,0 6.9,-1.1 9.7,-2.9"
   id="path20"
   style="fill:#000000" />
	<path
   class="st1"
   d="m 26.7,43.4 c -4.2,0 -8.1,-1.3 -11.4,-3.5 l -1.5,2.2 c 3.7,2.4 8.2,3.9 12.9,3.9 4.6,0 9,-1.4 12.6,-3.7 l -1.5,-2.2 c -3.2,2.1 -7,3.3 -11.1,3.3"
   id="path22"
   style="fill:#000000" />
	
	
	
	
	
	
	
	
</g>

</svg>
