%TF.GenerationSoftware,KiCad,Pcbnew,5.99.0+really5.1.10+dfsg1-1*%
%TF.CreationDate,2021-10-27T10:57:28+02:00*%
%TF.ProjectId,apico_shield,61706963-6f5f-4736-9869-656c642e6b69,rev?*%
%TF.SameCoordinates,Original*%
%TF.FileFunction,Legend,Top*%
%TF.FilePolarity,Positive*%
%FSLAX46Y46*%
G04 Gerber Fmt 4.6, Leading zero omitted, Abs format (unit mm)*
G04 Created by KiCad (PCBNEW 5.99.0+really5.1.10+dfsg1-1) date 2021-10-27 10:57:28*
%MOMM*%
%LPD*%
G01*
G04 APERTURE LIST*
%ADD10C,0.300000*%
%ADD11C,0.500000*%
%ADD12C,0.150000*%
%ADD13C,0.120000*%
G04 APERTURE END LIST*
D10*
X150923311Y-107591711D02*
X150923311Y-106091711D01*
X151423311Y-107163140D01*
X151923311Y-106091711D01*
X151923311Y-107591711D01*
X153280454Y-107591711D02*
X153280454Y-106805997D01*
X153209025Y-106663140D01*
X153066168Y-106591711D01*
X152780454Y-106591711D01*
X152637597Y-106663140D01*
X153280454Y-107520282D02*
X153137597Y-107591711D01*
X152780454Y-107591711D01*
X152637597Y-107520282D01*
X152566168Y-107377425D01*
X152566168Y-107234568D01*
X152637597Y-107091711D01*
X152780454Y-107020282D01*
X153137597Y-107020282D01*
X153280454Y-106948854D01*
X153994740Y-107591711D02*
X153994740Y-106591711D01*
X153994740Y-106877425D02*
X154066168Y-106734568D01*
X154137597Y-106663140D01*
X154280454Y-106591711D01*
X154423311Y-106591711D01*
X154851883Y-107520282D02*
X154994740Y-107591711D01*
X155280454Y-107591711D01*
X155423311Y-107520282D01*
X155494740Y-107377425D01*
X155494740Y-107305997D01*
X155423311Y-107163140D01*
X155280454Y-107091711D01*
X155066168Y-107091711D01*
X154923311Y-107020282D01*
X154851883Y-106877425D01*
X154851883Y-106805997D01*
X154923311Y-106663140D01*
X155066168Y-106591711D01*
X155280454Y-106591711D01*
X155423311Y-106663140D01*
X156709025Y-107520282D02*
X156566168Y-107591711D01*
X156280454Y-107591711D01*
X156137597Y-107520282D01*
X156066168Y-107377425D01*
X156066168Y-106805997D01*
X156137597Y-106663140D01*
X156280454Y-106591711D01*
X156566168Y-106591711D01*
X156709025Y-106663140D01*
X156780454Y-106805997D01*
X156780454Y-106948854D01*
X156066168Y-107091711D01*
X157423311Y-107591711D02*
X157423311Y-106591711D01*
X157423311Y-106091711D02*
X157351883Y-106163140D01*
X157423311Y-106234568D01*
X157494740Y-106163140D01*
X157423311Y-106091711D01*
X157423311Y-106234568D01*
X158351883Y-107591711D02*
X158209025Y-107520282D01*
X158137597Y-107377425D01*
X158137597Y-106091711D01*
X159137597Y-107591711D02*
X158994740Y-107520282D01*
X158923311Y-107377425D01*
X158923311Y-106091711D01*
X160280454Y-107520282D02*
X160137597Y-107591711D01*
X159851883Y-107591711D01*
X159709025Y-107520282D01*
X159637597Y-107377425D01*
X159637597Y-106805997D01*
X159709025Y-106663140D01*
X159851883Y-106591711D01*
X160137597Y-106591711D01*
X160280454Y-106663140D01*
X160351883Y-106805997D01*
X160351883Y-106948854D01*
X159637597Y-107091711D01*
X131457839Y-104200819D02*
X130505458Y-104200819D01*
X130505458Y-102200819D01*
X131934029Y-102867486D02*
X132410220Y-104200819D01*
X132886410Y-102867486D02*
X132410220Y-104200819D01*
X132219743Y-104677010D01*
X132124505Y-104772248D01*
X131934029Y-104867486D01*
X134505458Y-104105581D02*
X134314982Y-104200819D01*
X133934029Y-104200819D01*
X133743553Y-104105581D01*
X133648315Y-104010343D01*
X133553077Y-103819867D01*
X133553077Y-103248438D01*
X133648315Y-103057962D01*
X133743553Y-102962724D01*
X133934029Y-102867486D01*
X134314982Y-102867486D01*
X134505458Y-102962724D01*
X136124505Y-104105581D02*
X135934029Y-104200819D01*
X135553077Y-104200819D01*
X135362601Y-104105581D01*
X135267363Y-103915105D01*
X135267363Y-103153200D01*
X135362601Y-102962724D01*
X135553077Y-102867486D01*
X135934029Y-102867486D01*
X136124505Y-102962724D01*
X136219743Y-103153200D01*
X136219743Y-103343677D01*
X135267363Y-103534153D01*
X135934029Y-102105581D02*
X135648315Y-102391296D01*
X137838791Y-104105581D02*
X137648315Y-104200819D01*
X137267363Y-104200819D01*
X137076886Y-104105581D01*
X136981648Y-103915105D01*
X136981648Y-103153200D01*
X137076886Y-102962724D01*
X137267363Y-102867486D01*
X137648315Y-102867486D01*
X137838791Y-102962724D01*
X137934029Y-103153200D01*
X137934029Y-103343677D01*
X136981648Y-103534153D01*
X140219743Y-104105581D02*
X140505458Y-104200819D01*
X140981648Y-104200819D01*
X141172124Y-104105581D01*
X141267363Y-104010343D01*
X141362601Y-103819867D01*
X141362601Y-103629391D01*
X141267363Y-103438915D01*
X141172124Y-103343677D01*
X140981648Y-103248438D01*
X140600696Y-103153200D01*
X140410220Y-103057962D01*
X140314982Y-102962724D01*
X140219743Y-102772248D01*
X140219743Y-102581772D01*
X140314982Y-102391296D01*
X140410220Y-102296058D01*
X140600696Y-102200819D01*
X141076886Y-102200819D01*
X141362601Y-102296058D01*
X143076886Y-104200819D02*
X143076886Y-103153200D01*
X142981648Y-102962724D01*
X142791172Y-102867486D01*
X142410220Y-102867486D01*
X142219743Y-102962724D01*
X143076886Y-104105581D02*
X142886410Y-104200819D01*
X142410220Y-104200819D01*
X142219743Y-104105581D01*
X142124505Y-103915105D01*
X142124505Y-103724629D01*
X142219743Y-103534153D01*
X142410220Y-103438915D01*
X142886410Y-103438915D01*
X143076886Y-103343677D01*
X144029267Y-104200819D02*
X144029267Y-102867486D01*
X144029267Y-102200819D02*
X143934029Y-102296058D01*
X144029267Y-102391296D01*
X144124505Y-102296058D01*
X144029267Y-102200819D01*
X144029267Y-102391296D01*
X144981648Y-102867486D02*
X144981648Y-104200819D01*
X144981648Y-103057962D02*
X145076886Y-102962724D01*
X145267363Y-102867486D01*
X145553077Y-102867486D01*
X145743553Y-102962724D01*
X145838791Y-103153200D01*
X145838791Y-104200819D01*
X146505458Y-102867486D02*
X147267363Y-102867486D01*
X146791172Y-102200819D02*
X146791172Y-103915105D01*
X146886410Y-104105581D01*
X147076886Y-104200819D01*
X147267363Y-104200819D01*
X149457839Y-103153200D02*
X150124505Y-103153200D01*
X150410220Y-104200819D02*
X149457839Y-104200819D01*
X149457839Y-102200819D01*
X150410220Y-102200819D01*
X151076886Y-104200819D02*
X152124505Y-102867486D01*
X151076886Y-102867486D02*
X152124505Y-104200819D01*
X153743553Y-102867486D02*
X153743553Y-104200819D01*
X152886410Y-102867486D02*
X152886410Y-103915105D01*
X152981648Y-104105581D01*
X153172124Y-104200819D01*
X153457839Y-104200819D01*
X153648315Y-104105581D01*
X153743553Y-104010343D01*
X154695934Y-102867486D02*
X154695934Y-104867486D01*
X154695934Y-102962724D02*
X154886410Y-102867486D01*
X155267363Y-102867486D01*
X155457839Y-102962724D01*
X155553077Y-103057962D01*
X155648315Y-103248438D01*
X155648315Y-103819867D01*
X155553077Y-104010343D01*
X155457839Y-104105581D01*
X155267363Y-104200819D01*
X154886410Y-104200819D01*
X154695934Y-104105581D01*
X157267363Y-104105581D02*
X157076886Y-104200819D01*
X156695934Y-104200819D01*
X156505458Y-104105581D01*
X156410220Y-103915105D01*
X156410220Y-103153200D01*
X156505458Y-102962724D01*
X156695934Y-102867486D01*
X157076886Y-102867486D01*
X157267363Y-102962724D01*
X157362601Y-103153200D01*
X157362601Y-103343677D01*
X156410220Y-103534153D01*
X157076886Y-102105581D02*
X156791172Y-102391296D01*
X158219743Y-104200819D02*
X158219743Y-102867486D01*
X158219743Y-103248438D02*
X158314982Y-103057962D01*
X158410220Y-102962724D01*
X158600696Y-102867486D01*
X158791172Y-102867486D01*
X159267363Y-102867486D02*
X159743553Y-104200819D01*
X160219743Y-102867486D02*
X159743553Y-104200819D01*
X159553077Y-104677010D01*
X159457839Y-104772248D01*
X159267363Y-104867486D01*
D11*
X121398571Y-94480000D02*
X122827142Y-94480000D01*
X121112857Y-95337142D02*
X122112857Y-92337142D01*
X123112857Y-95337142D01*
X124112857Y-93337142D02*
X124112857Y-96337142D01*
X124112857Y-93480000D02*
X124398571Y-93337142D01*
X124970000Y-93337142D01*
X125255714Y-93480000D01*
X125398571Y-93622857D01*
X125541428Y-93908571D01*
X125541428Y-94765714D01*
X125398571Y-95051428D01*
X125255714Y-95194285D01*
X124970000Y-95337142D01*
X124398571Y-95337142D01*
X124112857Y-95194285D01*
X126827142Y-95337142D02*
X126827142Y-93337142D01*
X126827142Y-92337142D02*
X126684285Y-92480000D01*
X126827142Y-92622857D01*
X126970000Y-92480000D01*
X126827142Y-92337142D01*
X126827142Y-92622857D01*
X129970000Y-95051428D02*
X129827142Y-95194285D01*
X129398571Y-95337142D01*
X129112857Y-95337142D01*
X128684285Y-95194285D01*
X128398571Y-94908571D01*
X128255714Y-94622857D01*
X128112857Y-94051428D01*
X128112857Y-93622857D01*
X128255714Y-93051428D01*
X128398571Y-92765714D01*
X128684285Y-92480000D01*
X129112857Y-92337142D01*
X129398571Y-92337142D01*
X129827142Y-92480000D01*
X129970000Y-92622857D01*
X131684285Y-95337142D02*
X131398571Y-95194285D01*
X131255714Y-95051428D01*
X131112857Y-94765714D01*
X131112857Y-93908571D01*
X131255714Y-93622857D01*
X131398571Y-93480000D01*
X131684285Y-93337142D01*
X132112857Y-93337142D01*
X132398571Y-93480000D01*
X132541428Y-93622857D01*
X132684285Y-93908571D01*
X132684285Y-94765714D01*
X132541428Y-95051428D01*
X132398571Y-95194285D01*
X132112857Y-95337142D01*
X131684285Y-95337142D01*
X136112857Y-95194285D02*
X136541428Y-95337142D01*
X137255714Y-95337142D01*
X137541428Y-95194285D01*
X137684285Y-95051428D01*
X137827142Y-94765714D01*
X137827142Y-94480000D01*
X137684285Y-94194285D01*
X137541428Y-94051428D01*
X137255714Y-93908571D01*
X136684285Y-93765714D01*
X136398571Y-93622857D01*
X136255714Y-93480000D01*
X136112857Y-93194285D01*
X136112857Y-92908571D01*
X136255714Y-92622857D01*
X136398571Y-92480000D01*
X136684285Y-92337142D01*
X137398571Y-92337142D01*
X137827142Y-92480000D01*
X139112857Y-95337142D02*
X139112857Y-92337142D01*
X140398571Y-95337142D02*
X140398571Y-93765714D01*
X140255714Y-93480000D01*
X139970000Y-93337142D01*
X139541428Y-93337142D01*
X139255714Y-93480000D01*
X139112857Y-93622857D01*
X141827142Y-95337142D02*
X141827142Y-93337142D01*
X141827142Y-92337142D02*
X141684285Y-92480000D01*
X141827142Y-92622857D01*
X141970000Y-92480000D01*
X141827142Y-92337142D01*
X141827142Y-92622857D01*
X144398571Y-95194285D02*
X144112857Y-95337142D01*
X143541428Y-95337142D01*
X143255714Y-95194285D01*
X143112857Y-94908571D01*
X143112857Y-93765714D01*
X143255714Y-93480000D01*
X143541428Y-93337142D01*
X144112857Y-93337142D01*
X144398571Y-93480000D01*
X144541428Y-93765714D01*
X144541428Y-94051428D01*
X143112857Y-94337142D01*
X146255714Y-95337142D02*
X145970000Y-95194285D01*
X145827142Y-94908571D01*
X145827142Y-92337142D01*
X148684285Y-95337142D02*
X148684285Y-92337142D01*
X148684285Y-95194285D02*
X148398571Y-95337142D01*
X147827142Y-95337142D01*
X147541428Y-95194285D01*
X147398571Y-95051428D01*
X147255714Y-94765714D01*
X147255714Y-93908571D01*
X147398571Y-93622857D01*
X147541428Y-93480000D01*
X147827142Y-93337142D01*
X148398571Y-93337142D01*
X148684285Y-93480000D01*
X152112857Y-93337142D02*
X152827142Y-95337142D01*
X153541428Y-93337142D01*
X156255714Y-95337142D02*
X154541428Y-95337142D01*
X155398571Y-95337142D02*
X155398571Y-92337142D01*
X155112857Y-92765714D01*
X154827142Y-93051428D01*
X154541428Y-93194285D01*
X157541428Y-95051428D02*
X157684285Y-95194285D01*
X157541428Y-95337142D01*
X157398571Y-95194285D01*
X157541428Y-95051428D01*
X157541428Y-95337142D01*
X159541428Y-92337142D02*
X159827142Y-92337142D01*
X160112857Y-92480000D01*
X160255714Y-92622857D01*
X160398571Y-92908571D01*
X160541428Y-93480000D01*
X160541428Y-94194285D01*
X160398571Y-94765714D01*
X160255714Y-95051428D01*
X160112857Y-95194285D01*
X159827142Y-95337142D01*
X159541428Y-95337142D01*
X159255714Y-95194285D01*
X159112857Y-95051428D01*
X158970000Y-94765714D01*
X158827142Y-94194285D01*
X158827142Y-93480000D01*
X158970000Y-92908571D01*
X159112857Y-92622857D01*
X159255714Y-92480000D01*
X159541428Y-92337142D01*
D12*
%TO.C,APICO_UNO1*%
X114300000Y-73660000D02*
X178816000Y-73660000D01*
X114300000Y-127000000D02*
X180340000Y-127000000D01*
X178816000Y-73660000D02*
X180340000Y-75184000D01*
X180340000Y-127000000D02*
X180340000Y-125730000D01*
X180340000Y-125730000D02*
X182880000Y-123190000D01*
X182880000Y-123190000D02*
X182880000Y-88900000D01*
X182880000Y-88900000D02*
X180340000Y-86360000D01*
X180340000Y-86360000D02*
X180340000Y-75184000D01*
X114300000Y-73660000D02*
X114300000Y-127000000D01*
D13*
%TO.C,C3*%
X123190000Y-101600000D02*
X123190000Y-111760000D01*
X124460000Y-101600000D02*
X116840000Y-101600000D01*
X116840000Y-101600000D02*
X116840000Y-111760000D01*
X116840000Y-111760000D02*
X124460000Y-111760000D01*
X124460000Y-111760000D02*
X124460000Y-101600000D01*
%TO.C,C2*%
X128270000Y-119380000D02*
X153670000Y-119380000D01*
X128270000Y-118110000D02*
X153670000Y-118110000D01*
X128270000Y-111760000D02*
X153670000Y-111760000D01*
X153670000Y-111760000D02*
X153670000Y-119380000D01*
X128270000Y-111760000D02*
X128270000Y-119380000D01*
%TO.C,C1*%
X155750000Y-112570000D02*
X158750000Y-112570000D01*
X155750000Y-115570000D02*
X155750000Y-112570000D01*
X163750000Y-118870000D02*
X164350000Y-118870000D01*
X159150000Y-118870000D02*
X159750000Y-118870000D01*
X156250000Y-113020000D02*
X167300000Y-113020000D01*
X156250000Y-118870000D02*
X156250000Y-113020000D01*
X160000000Y-118870000D02*
X163500000Y-118870000D01*
X167300000Y-118870000D02*
X167300000Y-113020000D01*
X156250000Y-118870000D02*
X158900000Y-118870000D01*
X164650000Y-118870000D02*
X167300000Y-118870000D01*
%TO.C,b1*%
X175320000Y-111820000D02*
X173990000Y-111820000D01*
X175320000Y-110490000D02*
X175320000Y-111820000D01*
X175320000Y-109220000D02*
X172660000Y-109220000D01*
X172660000Y-109220000D02*
X172660000Y-88840000D01*
X175320000Y-109220000D02*
X175320000Y-88840000D01*
X175320000Y-88840000D02*
X172660000Y-88840000D01*
%TO.C,b2*%
X153730000Y-85150000D02*
X153730000Y-82490000D01*
X143510000Y-85150000D02*
X153730000Y-85150000D01*
X143510000Y-82490000D02*
X153730000Y-82490000D01*
X143510000Y-85150000D02*
X143510000Y-82490000D01*
X142240000Y-85150000D02*
X140910000Y-85150000D01*
X140910000Y-85150000D02*
X140910000Y-83820000D01*
%TO.C,APICO_UNO1*%
D12*
X176784000Y-95353142D02*
X176831619Y-95400761D01*
X176784000Y-95448380D01*
X176736380Y-95400761D01*
X176784000Y-95353142D01*
X176784000Y-95448380D01*
%TO.C,C3*%
X126547619Y-101989523D02*
X127547619Y-101989523D01*
X127547619Y-102370476D01*
X127500000Y-102465714D01*
X127452380Y-102513333D01*
X127357142Y-102560952D01*
X127214285Y-102560952D01*
X127119047Y-102513333D01*
X127071428Y-102465714D01*
X127023809Y-102370476D01*
X127023809Y-101989523D01*
X126547619Y-103132380D02*
X126595238Y-103037142D01*
X126642857Y-102989523D01*
X126738095Y-102941904D01*
X127023809Y-102941904D01*
X127119047Y-102989523D01*
X127166666Y-103037142D01*
X127214285Y-103132380D01*
X127214285Y-103275238D01*
X127166666Y-103370476D01*
X127119047Y-103418095D01*
X127023809Y-103465714D01*
X126738095Y-103465714D01*
X126642857Y-103418095D01*
X126595238Y-103370476D01*
X126547619Y-103275238D01*
X126547619Y-103132380D01*
X127214285Y-103799047D02*
X126547619Y-103989523D01*
X127023809Y-104180000D01*
X126547619Y-104370476D01*
X127214285Y-104560952D01*
X126595238Y-105322857D02*
X126547619Y-105227619D01*
X126547619Y-105037142D01*
X126595238Y-104941904D01*
X126690476Y-104894285D01*
X127071428Y-104894285D01*
X127166666Y-104941904D01*
X127214285Y-105037142D01*
X127214285Y-105227619D01*
X127166666Y-105322857D01*
X127071428Y-105370476D01*
X126976190Y-105370476D01*
X126880952Y-104894285D01*
X126547619Y-105799047D02*
X127214285Y-105799047D01*
X127023809Y-105799047D02*
X127119047Y-105846666D01*
X127166666Y-105894285D01*
X127214285Y-105989523D01*
X127214285Y-106084761D01*
X127547619Y-107656190D02*
X127547619Y-107180000D01*
X127071428Y-107132380D01*
X127119047Y-107180000D01*
X127166666Y-107275238D01*
X127166666Y-107513333D01*
X127119047Y-107608571D01*
X127071428Y-107656190D01*
X126976190Y-107703809D01*
X126738095Y-107703809D01*
X126642857Y-107656190D01*
X126595238Y-107608571D01*
X126547619Y-107513333D01*
X126547619Y-107275238D01*
X126595238Y-107180000D01*
X126642857Y-107132380D01*
X127547619Y-107989523D02*
X126547619Y-108322857D01*
X127547619Y-108656190D01*
X127595238Y-109703809D02*
X126309523Y-108846666D01*
X127452380Y-109989523D02*
X127500000Y-110037142D01*
X127547619Y-110132380D01*
X127547619Y-110370476D01*
X127500000Y-110465714D01*
X127452380Y-110513333D01*
X127357142Y-110560952D01*
X127261904Y-110560952D01*
X127119047Y-110513333D01*
X126547619Y-109941904D01*
X126547619Y-110560952D01*
X126833333Y-110941904D02*
X126833333Y-111418095D01*
X126547619Y-110846666D02*
X127547619Y-111180000D01*
X126547619Y-111513333D01*
%TO.C,C2*%
X136912380Y-120578571D02*
X137055238Y-120626190D01*
X137102857Y-120673809D01*
X137150476Y-120769047D01*
X137150476Y-120911904D01*
X137102857Y-121007142D01*
X137055238Y-121054761D01*
X136960000Y-121102380D01*
X136579047Y-121102380D01*
X136579047Y-120102380D01*
X136912380Y-120102380D01*
X137007619Y-120150000D01*
X137055238Y-120197619D01*
X137102857Y-120292857D01*
X137102857Y-120388095D01*
X137055238Y-120483333D01*
X137007619Y-120530952D01*
X136912380Y-120578571D01*
X136579047Y-120578571D01*
X137960000Y-121054761D02*
X137864761Y-121102380D01*
X137674285Y-121102380D01*
X137579047Y-121054761D01*
X137531428Y-120959523D01*
X137531428Y-120578571D01*
X137579047Y-120483333D01*
X137674285Y-120435714D01*
X137864761Y-120435714D01*
X137960000Y-120483333D01*
X138007619Y-120578571D01*
X138007619Y-120673809D01*
X137531428Y-120769047D01*
X138817142Y-121054761D02*
X138721904Y-121102380D01*
X138531428Y-121102380D01*
X138436190Y-121054761D01*
X138388571Y-120959523D01*
X138388571Y-120578571D01*
X138436190Y-120483333D01*
X138531428Y-120435714D01*
X138721904Y-120435714D01*
X138817142Y-120483333D01*
X138864761Y-120578571D01*
X138864761Y-120673809D01*
X138388571Y-120769047D01*
X140626666Y-121007142D02*
X140579047Y-121054761D01*
X140436190Y-121102380D01*
X140340952Y-121102380D01*
X140198095Y-121054761D01*
X140102857Y-120959523D01*
X140055238Y-120864285D01*
X140007619Y-120673809D01*
X140007619Y-120530952D01*
X140055238Y-120340476D01*
X140102857Y-120245238D01*
X140198095Y-120150000D01*
X140340952Y-120102380D01*
X140436190Y-120102380D01*
X140579047Y-120150000D01*
X140626666Y-120197619D01*
X141198095Y-121102380D02*
X141102857Y-121054761D01*
X141055238Y-121007142D01*
X141007619Y-120911904D01*
X141007619Y-120626190D01*
X141055238Y-120530952D01*
X141102857Y-120483333D01*
X141198095Y-120435714D01*
X141340952Y-120435714D01*
X141436190Y-120483333D01*
X141483809Y-120530952D01*
X141531428Y-120626190D01*
X141531428Y-120911904D01*
X141483809Y-121007142D01*
X141436190Y-121054761D01*
X141340952Y-121102380D01*
X141198095Y-121102380D01*
X142388571Y-120435714D02*
X142388571Y-121102380D01*
X141960000Y-120435714D02*
X141960000Y-120959523D01*
X142007619Y-121054761D01*
X142102857Y-121102380D01*
X142245714Y-121102380D01*
X142340952Y-121054761D01*
X142388571Y-121007142D01*
X142864761Y-120435714D02*
X142864761Y-121102380D01*
X142864761Y-120530952D02*
X142912380Y-120483333D01*
X143007619Y-120435714D01*
X143150476Y-120435714D01*
X143245714Y-120483333D01*
X143293333Y-120578571D01*
X143293333Y-121102380D01*
X143626666Y-120435714D02*
X144007619Y-120435714D01*
X143769523Y-120102380D02*
X143769523Y-120959523D01*
X143817142Y-121054761D01*
X143912380Y-121102380D01*
X144007619Y-121102380D01*
X144721904Y-121054761D02*
X144626666Y-121102380D01*
X144436190Y-121102380D01*
X144340952Y-121054761D01*
X144293333Y-120959523D01*
X144293333Y-120578571D01*
X144340952Y-120483333D01*
X144436190Y-120435714D01*
X144626666Y-120435714D01*
X144721904Y-120483333D01*
X144769523Y-120578571D01*
X144769523Y-120673809D01*
X144293333Y-120769047D01*
X145198095Y-121102380D02*
X145198095Y-120435714D01*
X145198095Y-120626190D02*
X145245714Y-120530952D01*
X145293333Y-120483333D01*
X145388571Y-120435714D01*
X145483809Y-120435714D01*
%TO.C,C1*%
X155107142Y-117236666D02*
X155154761Y-117284285D01*
X155202380Y-117427142D01*
X155202380Y-117522380D01*
X155154761Y-117665238D01*
X155059523Y-117760476D01*
X154964285Y-117808095D01*
X154773809Y-117855714D01*
X154630952Y-117855714D01*
X154440476Y-117808095D01*
X154345238Y-117760476D01*
X154250000Y-117665238D01*
X154202380Y-117522380D01*
X154202380Y-117427142D01*
X154250000Y-117284285D01*
X154297619Y-117236666D01*
X155202380Y-116284285D02*
X155202380Y-116855714D01*
X155202380Y-116570000D02*
X154202380Y-116570000D01*
X154345238Y-116665238D01*
X154440476Y-116760476D01*
X154488095Y-116855714D01*
X156508571Y-120150000D02*
X156413333Y-120102380D01*
X156270476Y-120102380D01*
X156127619Y-120150000D01*
X156032380Y-120245238D01*
X155984761Y-120340476D01*
X155937142Y-120530952D01*
X155937142Y-120673809D01*
X155984761Y-120864285D01*
X156032380Y-120959523D01*
X156127619Y-121054761D01*
X156270476Y-121102380D01*
X156365714Y-121102380D01*
X156508571Y-121054761D01*
X156556190Y-121007142D01*
X156556190Y-120673809D01*
X156365714Y-120673809D01*
X156984761Y-121102380D02*
X156984761Y-120435714D01*
X156984761Y-120626190D02*
X157032380Y-120530952D01*
X157080000Y-120483333D01*
X157175238Y-120435714D01*
X157270476Y-120435714D01*
X157746666Y-121102380D02*
X157651428Y-121054761D01*
X157603809Y-121007142D01*
X157556190Y-120911904D01*
X157556190Y-120626190D01*
X157603809Y-120530952D01*
X157651428Y-120483333D01*
X157746666Y-120435714D01*
X157889523Y-120435714D01*
X157984761Y-120483333D01*
X158032380Y-120530952D01*
X158080000Y-120626190D01*
X158080000Y-120911904D01*
X158032380Y-121007142D01*
X157984761Y-121054761D01*
X157889523Y-121102380D01*
X157746666Y-121102380D01*
X158413333Y-120435714D02*
X158651428Y-121102380D01*
X158889523Y-120435714D01*
X159651428Y-121054761D02*
X159556190Y-121102380D01*
X159365714Y-121102380D01*
X159270476Y-121054761D01*
X159222857Y-120959523D01*
X159222857Y-120578571D01*
X159270476Y-120483333D01*
X159365714Y-120435714D01*
X159556190Y-120435714D01*
X159651428Y-120483333D01*
X159699047Y-120578571D01*
X159699047Y-120673809D01*
X159222857Y-120769047D01*
X161460952Y-121007142D02*
X161413333Y-121054761D01*
X161270476Y-121102380D01*
X161175238Y-121102380D01*
X161032380Y-121054761D01*
X160937142Y-120959523D01*
X160889523Y-120864285D01*
X160841904Y-120673809D01*
X160841904Y-120530952D01*
X160889523Y-120340476D01*
X160937142Y-120245238D01*
X161032380Y-120150000D01*
X161175238Y-120102380D01*
X161270476Y-120102380D01*
X161413333Y-120150000D01*
X161460952Y-120197619D01*
X162080000Y-120102380D02*
X162270476Y-120102380D01*
X162365714Y-120150000D01*
X162460952Y-120245238D01*
X162508571Y-120435714D01*
X162508571Y-120769047D01*
X162460952Y-120959523D01*
X162365714Y-121054761D01*
X162270476Y-121102380D01*
X162080000Y-121102380D01*
X161984761Y-121054761D01*
X161889523Y-120959523D01*
X161841904Y-120769047D01*
X161841904Y-120435714D01*
X161889523Y-120245238D01*
X161984761Y-120150000D01*
X162080000Y-120102380D01*
X162889523Y-120197619D02*
X162937142Y-120150000D01*
X163032380Y-120102380D01*
X163270476Y-120102380D01*
X163365714Y-120150000D01*
X163413333Y-120197619D01*
X163460952Y-120292857D01*
X163460952Y-120388095D01*
X163413333Y-120530952D01*
X162841904Y-121102380D01*
X163460952Y-121102380D01*
X163937142Y-121054761D02*
X163937142Y-121102380D01*
X163889523Y-121197619D01*
X163841904Y-121245238D01*
X164222857Y-120102380D02*
X164794285Y-120102380D01*
X164508571Y-121102380D02*
X164508571Y-120102380D01*
X165175238Y-121054761D02*
X165175238Y-121102380D01*
X165127619Y-121197619D01*
X165080000Y-121245238D01*
X166175238Y-121102380D02*
X165841904Y-120626190D01*
X165603809Y-121102380D02*
X165603809Y-120102380D01*
X165984761Y-120102380D01*
X166080000Y-120150000D01*
X166127619Y-120197619D01*
X166175238Y-120292857D01*
X166175238Y-120435714D01*
X166127619Y-120530952D01*
X166080000Y-120578571D01*
X165984761Y-120626190D01*
X165603809Y-120626190D01*
X166603809Y-121102380D02*
X166603809Y-120102380D01*
X166603809Y-120578571D02*
X167175238Y-120578571D01*
X167175238Y-121102380D02*
X167175238Y-120102380D01*
%TO.C,b1*%
X168529505Y-103814749D02*
X168529505Y-104290940D01*
X167529505Y-104290940D01*
X167529505Y-103290940D02*
X167529505Y-103100463D01*
X167577125Y-103005225D01*
X167672363Y-102909987D01*
X167862839Y-102862368D01*
X168196172Y-102862368D01*
X168386648Y-102909987D01*
X168481886Y-103005225D01*
X168529505Y-103100463D01*
X168529505Y-103290940D01*
X168481886Y-103386178D01*
X168386648Y-103481416D01*
X168196172Y-103529035D01*
X167862839Y-103529035D01*
X167672363Y-103481416D01*
X167577125Y-103386178D01*
X167529505Y-103290940D01*
X168529505Y-101862368D02*
X168053315Y-102195702D01*
X168529505Y-102433797D02*
X167529505Y-102433797D01*
X167529505Y-102052844D01*
X167577125Y-101957606D01*
X167624744Y-101909987D01*
X167719982Y-101862368D01*
X167862839Y-101862368D01*
X167958077Y-101909987D01*
X168005696Y-101957606D01*
X168053315Y-102052844D01*
X168053315Y-102433797D01*
X168243791Y-101481416D02*
X168243791Y-101005225D01*
X168529505Y-101576654D02*
X167529505Y-101243321D01*
X168529505Y-100909987D01*
X168529505Y-99243321D02*
X168053315Y-99576654D01*
X168529505Y-99814749D02*
X167529505Y-99814749D01*
X167529505Y-99433797D01*
X167577125Y-99338559D01*
X167624744Y-99290940D01*
X167719982Y-99243321D01*
X167862839Y-99243321D01*
X167958077Y-99290940D01*
X168005696Y-99338559D01*
X168053315Y-99433797D01*
X168053315Y-99814749D01*
X168529505Y-98386178D02*
X168005696Y-98386178D01*
X167910458Y-98433797D01*
X167862839Y-98529035D01*
X167862839Y-98719511D01*
X167910458Y-98814749D01*
X168481886Y-98386178D02*
X168529505Y-98481416D01*
X168529505Y-98719511D01*
X168481886Y-98814749D01*
X168386648Y-98862368D01*
X168291410Y-98862368D01*
X168196172Y-98814749D01*
X168148553Y-98719511D01*
X168148553Y-98481416D01*
X168100934Y-98386178D01*
X168529505Y-97481416D02*
X167529505Y-97481416D01*
X168481886Y-97481416D02*
X168529505Y-97576654D01*
X168529505Y-97767130D01*
X168481886Y-97862368D01*
X168434267Y-97909987D01*
X168339029Y-97957606D01*
X168053315Y-97957606D01*
X167958077Y-97909987D01*
X167910458Y-97862368D01*
X167862839Y-97767130D01*
X167862839Y-97576654D01*
X167910458Y-97481416D01*
X168529505Y-97005225D02*
X167862839Y-97005225D01*
X167529505Y-97005225D02*
X167577125Y-97052844D01*
X167624744Y-97005225D01*
X167577125Y-96957606D01*
X167529505Y-97005225D01*
X167624744Y-97005225D01*
X168529505Y-96386178D02*
X168481886Y-96481416D01*
X168434267Y-96529035D01*
X168339029Y-96576654D01*
X168053315Y-96576654D01*
X167958077Y-96529035D01*
X167910458Y-96481416D01*
X167862839Y-96386178D01*
X167862839Y-96243321D01*
X167910458Y-96148082D01*
X167958077Y-96100463D01*
X168053315Y-96052844D01*
X168339029Y-96052844D01*
X168434267Y-96100463D01*
X168481886Y-96148082D01*
X168529505Y-96243321D01*
X168529505Y-96386178D01*
%TO.C,b2*%
X148915238Y-88447619D02*
X148915238Y-89447619D01*
X148581904Y-88733333D01*
X148248571Y-89447619D01*
X148248571Y-88447619D01*
X147343809Y-88447619D02*
X147343809Y-88971428D01*
X147391428Y-89066666D01*
X147486666Y-89114285D01*
X147677142Y-89114285D01*
X147772380Y-89066666D01*
X147343809Y-88495238D02*
X147439047Y-88447619D01*
X147677142Y-88447619D01*
X147772380Y-88495238D01*
X147820000Y-88590476D01*
X147820000Y-88685714D01*
X147772380Y-88780952D01*
X147677142Y-88828571D01*
X147439047Y-88828571D01*
X147343809Y-88876190D01*
X146915238Y-88495238D02*
X146820000Y-88447619D01*
X146629523Y-88447619D01*
X146534285Y-88495238D01*
X146486666Y-88590476D01*
X146486666Y-88638095D01*
X146534285Y-88733333D01*
X146629523Y-88780952D01*
X146772380Y-88780952D01*
X146867619Y-88828571D01*
X146915238Y-88923809D01*
X146915238Y-88971428D01*
X146867619Y-89066666D01*
X146772380Y-89114285D01*
X146629523Y-89114285D01*
X146534285Y-89066666D01*
X146105714Y-88495238D02*
X146010476Y-88447619D01*
X145820000Y-88447619D01*
X145724761Y-88495238D01*
X145677142Y-88590476D01*
X145677142Y-88638095D01*
X145724761Y-88733333D01*
X145820000Y-88780952D01*
X145962857Y-88780952D01*
X146058095Y-88828571D01*
X146105714Y-88923809D01*
X146105714Y-88971428D01*
X146058095Y-89066666D01*
X145962857Y-89114285D01*
X145820000Y-89114285D01*
X145724761Y-89066666D01*
%TD*%
M02*
