M48
; DRILL file {KiCad 5.99.0+really5.1.10+dfsg1-1} date Wed Oct 27 10:57:25 2021
; FORMAT={-:-/ absolute / inch / decimal}
; #@! TF.CreationDate,2021-10-27T10:57:25+02:00
; #@! TF.GenerationSoftware,Kicad,Pcbnew,5.99.0+really5.1.10+dfsg1-1
; #@! TF.FileFunction,Plated,1,2,PTH
FMAT,2
INCH
T1C0.0300
T2C0.0394
T3C0.0400
T4C0.0598
%
G90
G05
T1
X6.25Y-4.55
X6.3287Y-4.55
X6.4075Y-4.55
X6.4862Y-4.55
T2
X5.6Y-3.3
X5.7Y-3.3
X5.8Y-3.3
X5.9Y-3.3
X6.0Y-3.3
X6.85Y-3.55
X6.85Y-3.65
X6.85Y-3.75
X6.85Y-3.85
X6.85Y-3.95
X6.85Y-4.05
X6.85Y-4.15
X6.85Y-4.25
X6.85Y-4.35
T3
X5.24Y-3.0
X5.34Y-3.0
X5.44Y-3.0
X5.54Y-3.0
X5.6Y-4.9
X5.64Y-3.0
X5.7Y-4.9
X5.74Y-3.0
X5.8Y-4.9
X5.84Y-3.0
X5.9Y-4.9
X5.94Y-3.0
X6.0Y-4.9
X6.04Y-3.0
X6.1Y-4.9
X6.14Y-3.0
X6.2Y-4.9
X6.3Y-3.0
X6.3Y-4.9
X6.4Y-3.0
X6.5Y-3.0
X6.5Y-4.9
X6.6Y-3.0
X6.6Y-4.9
X6.7Y-3.0
X6.7Y-4.9
X6.8Y-3.0
X6.8Y-4.9
X6.9Y-3.0
X6.9Y-4.9
X7.0Y-3.0
X7.0Y-4.9
X7.005Y-3.8
X7.005Y-3.9
X7.005Y-4.0
X7.105Y-3.8
X7.105Y-3.9
X7.105Y-4.0
T4
X4.75Y-4.1
X4.75Y-4.3
X5.15Y-4.55
X5.35Y-4.55
X5.55Y-4.55
X5.75Y-4.55
X5.95Y-4.55
T0
M30
