%TF.GenerationSoftware,KiCad,Pcbnew,5.99.0+really5.1.10+dfsg1-1*%
%TF.CreationDate,2021-10-27T10:57:28+02:00*%
%TF.ProjectId,apico_shield,61706963-6f5f-4736-9869-656c642e6b69,rev?*%
%TF.SameCoordinates,Original*%
%TF.FileFunction,Copper,L2,Bot*%
%TF.FilePolarity,Positive*%
%FSLAX46Y46*%
G04 Gerber Fmt 4.6, Leading zero omitted, Abs format (unit mm)*
G04 Created by KiCad (PCBNEW 5.99.0+really5.1.10+dfsg1-1) date 2021-10-27 10:57:28*
%MOMM*%
%LPD*%
G01*
G04 APERTURE LIST*
%TA.AperFunction,ComponentPad*%
%ADD10O,1.727200X1.727200*%
%TD*%
%TA.AperFunction,ComponentPad*%
%ADD11C,3.000000*%
%TD*%
%TA.AperFunction,ComponentPad*%
%ADD12R,3.000000X3.000000*%
%TD*%
%TA.AperFunction,ComponentPad*%
%ADD13C,1.524000*%
%TD*%
%TA.AperFunction,ComponentPad*%
%ADD14R,1.524000X1.524000*%
%TD*%
%TA.AperFunction,ComponentPad*%
%ADD15O,1.700000X1.700000*%
%TD*%
%TA.AperFunction,ComponentPad*%
%ADD16R,1.700000X1.700000*%
%TD*%
%TA.AperFunction,Conductor*%
%ADD17C,0.250000*%
%TD*%
%TA.AperFunction,Conductor*%
%ADD18C,0.500000*%
%TD*%
G04 APERTURE END LIST*
D10*
%TO.P,APICO_UNO1,MISO*%
%TO.N,N/C*%
X177927000Y-96520000D03*
%TO.P,APICO_UNO1,A5*%
%TO.N,Net-(APICO_UNO1-PadA5)*%
X177800000Y-124460000D03*
%TO.P,APICO_UNO1,A4*%
%TO.N,Net-(APICO_UNO1-PadA4)*%
X175260000Y-124460000D03*
%TO.P,APICO_UNO1,A3*%
%TO.N,N/C*%
X172720000Y-124460000D03*
%TO.P,APICO_UNO1,A2*%
X170180000Y-124460000D03*
%TO.P,APICO_UNO1,A1*%
X167640000Y-124460000D03*
%TO.P,APICO_UNO1,*%
%TO.N,*%
X142240000Y-124460000D03*
%TO.P,APICO_UNO1,D11*%
%TO.N,Net-(APICO_UNO1-PadD11)*%
X148336000Y-76200000D03*
%TO.P,APICO_UNO1,D12*%
%TO.N,Net-(APICO_UNO1-PadD12)*%
X145796000Y-76200000D03*
%TO.P,APICO_UNO1,D13*%
%TO.N,Net-(APICO_UNO1-PadD13)*%
X143256000Y-76200000D03*
%TO.P,APICO_UNO1,AREF*%
%TO.N,N/C*%
X138176000Y-76200000D03*
%TO.P,APICO_UNO1,SDA*%
X135636000Y-76200000D03*
%TO.P,APICO_UNO1,SCL*%
X133096000Y-76200000D03*
%TO.P,APICO_UNO1,D10*%
X150876000Y-76200000D03*
%TO.P,APICO_UNO1,D9*%
%TO.N,Net-(APICO_UNO1-PadD9)*%
X153416000Y-76200000D03*
%TO.P,APICO_UNO1,D8*%
%TO.N,Net-(APICO_UNO1-PadD8)*%
X155956000Y-76200000D03*
%TO.P,APICO_UNO1,GND1*%
%TO.N,Net-(APICO_UNO1-PadGND1)*%
X140716000Y-76200000D03*
%TO.P,APICO_UNO1,D7*%
%TO.N,Net-(APICO_UNO1-PadD7)*%
X160020000Y-76200000D03*
%TO.P,APICO_UNO1,D6*%
%TO.N,Net-(APICO_UNO1-PadD6)*%
X162560000Y-76200000D03*
%TO.P,APICO_UNO1,D5*%
%TO.N,Net-(APICO_UNO1-PadD5)*%
X165100000Y-76200000D03*
%TO.P,APICO_UNO1,D4*%
%TO.N,Net-(APICO_UNO1-PadD4)*%
X167640000Y-76200000D03*
%TO.P,APICO_UNO1,D3*%
%TO.N,Net-(APICO_UNO1-PadD3)*%
X170180000Y-76200000D03*
%TO.P,APICO_UNO1,D2*%
%TO.N,Net-(APICO_UNO1-PadD2)*%
X172720000Y-76200000D03*
%TO.P,APICO_UNO1,D1*%
%TO.N,N/C*%
X175260000Y-76200000D03*
%TO.P,APICO_UNO1,D0*%
X177800000Y-76200000D03*
%TO.P,APICO_UNO1,IORF*%
X144780000Y-124460000D03*
%TO.P,APICO_UNO1,RST1*%
X147320000Y-124460000D03*
%TO.P,APICO_UNO1,3V3*%
X149860000Y-124460000D03*
%TO.P,APICO_UNO1,5V1*%
%TO.N,Net-(APICO_UNO1-Pad5V1)*%
X152400000Y-124460000D03*
%TO.P,APICO_UNO1,GND2*%
%TO.N,N/C*%
X154940000Y-124460000D03*
%TO.P,APICO_UNO1,GND3*%
X157480000Y-124460000D03*
%TO.P,APICO_UNO1,VIN*%
X160020000Y-124460000D03*
%TO.P,APICO_UNO1,A0*%
X165100000Y-124460000D03*
%TO.P,APICO_UNO1,5V2*%
X180467000Y-96520000D03*
%TO.P,APICO_UNO1,SCK*%
X177927000Y-99060000D03*
%TO.P,APICO_UNO1,MOSI*%
X180467000Y-99060000D03*
%TO.P,APICO_UNO1,GND4*%
X180467000Y-101600000D03*
%TO.P,APICO_UNO1,RST2*%
X177927000Y-101600000D03*
%TD*%
D11*
%TO.P,C3,2*%
%TO.N,Net-(APICO_UNO1-Pad5V1)*%
X120650000Y-104140000D03*
D12*
%TO.P,C3,1*%
%TO.N,Net-(APICO_UNO1-PadGND1)*%
X120650000Y-109220000D03*
%TD*%
D11*
%TO.P,C2,5*%
%TO.N,Net-(APICO_UNO1-PadD9)*%
X151130000Y-115570000D03*
%TO.P,C2,4*%
%TO.N,Net-(APICO_UNO1-PadD8)*%
X146050000Y-115570000D03*
D12*
%TO.P,C2,1*%
%TO.N,Net-(APICO_UNO1-Pad5V1)*%
X130810000Y-115570000D03*
D11*
%TO.P,C2,3*%
%TO.N,Net-(APICO_UNO1-PadD7)*%
X140970000Y-115570000D03*
%TO.P,C2,2*%
%TO.N,Net-(APICO_UNO1-PadGND1)*%
X135890000Y-115570000D03*
%TD*%
D13*
%TO.P,C1,4*%
%TO.N,Net-(APICO_UNO1-PadA5)*%
X164750000Y-115570000D03*
%TO.P,C1,3*%
%TO.N,Net-(APICO_UNO1-PadA4)*%
X162750000Y-115570000D03*
%TO.P,C1,2*%
%TO.N,Net-(APICO_UNO1-Pad5V1)*%
X160750000Y-115570000D03*
D14*
%TO.P,C1,1*%
%TO.N,Net-(APICO_UNO1-PadGND1)*%
X158750000Y-115570000D03*
%TD*%
D15*
%TO.P,b1,9*%
%TO.N,Net-(APICO_UNO1-Pad5V1)*%
X173990000Y-90170000D03*
%TO.P,b1,8*%
%TO.N,Net-(APICO_UNO1-PadGND1)*%
X173990000Y-92710000D03*
%TO.P,b1,7*%
%TO.N,N/C*%
X173990000Y-95250000D03*
%TO.P,b1,6*%
%TO.N,Net-(APICO_UNO1-PadD3)*%
X173990000Y-97790000D03*
%TO.P,b1,5*%
%TO.N,Net-(APICO_UNO1-PadD13)*%
X173990000Y-100330000D03*
%TO.P,b1,4*%
%TO.N,Net-(APICO_UNO1-PadD12)*%
X173990000Y-102870000D03*
%TO.P,b1,3*%
%TO.N,Net-(APICO_UNO1-PadD11)*%
X173990000Y-105410000D03*
%TO.P,b1,2*%
%TO.N,Net-(APICO_UNO1-PadD4)*%
X173990000Y-107950000D03*
D16*
%TO.P,b1,1*%
%TO.N,Net-(APICO_UNO1-PadD2)*%
X173990000Y-110490000D03*
%TD*%
D15*
%TO.P,b2,5*%
%TO.N,Net-(APICO_UNO1-PadGND1)*%
X152400000Y-83820000D03*
%TO.P,b2,4*%
%TO.N,Net-(APICO_UNO1-PadD5)*%
X149860000Y-83820000D03*
%TO.P,b2,3*%
%TO.N,Net-(APICO_UNO1-PadD6)*%
X147320000Y-83820000D03*
%TO.P,b2,2*%
%TO.N,Net-(APICO_UNO1-Pad5V1)*%
X144780000Y-83820000D03*
D16*
%TO.P,b2,1*%
X142240000Y-83820000D03*
%TD*%
D17*
%TO.N,Net-(APICO_UNO1-PadGND1)*%
X140716000Y-76200000D02*
X141904900Y-76200000D01*
X152400000Y-83820000D02*
X151224700Y-83820000D01*
X151224700Y-83820000D02*
X151224700Y-83452600D01*
X151224700Y-83452600D02*
X145161000Y-77388900D01*
X145161000Y-77388900D02*
X142722200Y-77388900D01*
X142722200Y-77388900D02*
X141904900Y-76571600D01*
X141904900Y-76571600D02*
X141904900Y-76200000D01*
%TO.N,Net-(APICO_UNO1-Pad5V1)*%
X173990000Y-90170000D02*
X173990000Y-91345300D01*
X160750000Y-115570000D02*
X169640000Y-106680000D01*
X169640000Y-106680000D02*
X174388400Y-106680000D01*
X174388400Y-106680000D02*
X175165300Y-105903100D01*
X175165300Y-105903100D02*
X175165300Y-92153200D01*
X175165300Y-92153200D02*
X174357400Y-91345300D01*
X174357400Y-91345300D02*
X173990000Y-91345300D01*
X152400000Y-123271100D02*
X153048900Y-123271100D01*
X153048900Y-123271100D02*
X160750000Y-115570000D01*
X142240000Y-83820000D02*
X141064700Y-83820000D01*
X121151700Y-104086400D02*
X121098100Y-104140000D01*
X121098100Y-104140000D02*
X120650000Y-104140000D01*
X141064700Y-83820000D02*
X141064700Y-84173400D01*
X141064700Y-84173400D02*
X121151700Y-104086400D01*
D18*
X130810000Y-113744700D02*
X121151700Y-104086400D01*
X130810000Y-115570000D02*
X130810000Y-113744700D01*
D17*
X152400000Y-124460000D02*
X152400000Y-123271100D01*
%TO.N,Net-(APICO_UNO1-PadD11)*%
X148336000Y-76200000D02*
X149524900Y-76200000D01*
X173990000Y-105410000D02*
X173990000Y-104234700D01*
X173990000Y-104234700D02*
X173622700Y-104234700D01*
X173622700Y-104234700D02*
X161249200Y-91861200D01*
X161249200Y-91861200D02*
X161249200Y-75742400D01*
X161249200Y-75742400D02*
X160067200Y-74560400D01*
X160067200Y-74560400D02*
X150793000Y-74560400D01*
X150793000Y-74560400D02*
X149524900Y-75828500D01*
X149524900Y-75828500D02*
X149524900Y-76200000D01*
%TO.N,Net-(APICO_UNO1-PadD13)*%
X143256000Y-76200000D02*
X144444900Y-76200000D01*
X173990000Y-100330000D02*
X173990000Y-99154700D01*
X173990000Y-99154700D02*
X173622700Y-99154700D01*
X173622700Y-99154700D02*
X163830000Y-89362000D01*
X163830000Y-89362000D02*
X163830000Y-75756300D01*
X163830000Y-75756300D02*
X162183700Y-74110000D01*
X162183700Y-74110000D02*
X146163400Y-74110000D01*
X146163400Y-74110000D02*
X144444900Y-75828500D01*
X144444900Y-75828500D02*
X144444900Y-76200000D01*
%TO.N,Net-(APICO_UNO1-PadD3)*%
X173990000Y-97790000D02*
X173990000Y-96614700D01*
X173990000Y-96614700D02*
X173622700Y-96614700D01*
X173622700Y-96614700D02*
X170180000Y-93172000D01*
X170180000Y-93172000D02*
X170180000Y-76200000D01*
%TO.N,Net-(APICO_UNO1-PadD2)*%
X172720000Y-76200000D02*
X172720000Y-77388900D01*
X173990000Y-110490000D02*
X173990000Y-109314700D01*
X173990000Y-109314700D02*
X174357300Y-109314700D01*
X174357300Y-109314700D02*
X175638100Y-108033900D01*
X175638100Y-108033900D02*
X175638100Y-80307000D01*
X175638100Y-80307000D02*
X172720000Y-77388900D01*
%TO.N,Net-(APICO_UNO1-PadA4)*%
X175260000Y-124460000D02*
X174071100Y-124460000D01*
X162750000Y-115570000D02*
X163856300Y-114463700D01*
X163856300Y-114463700D02*
X165189400Y-114463700D01*
X165189400Y-114463700D02*
X174071100Y-123345400D01*
X174071100Y-123345400D02*
X174071100Y-124460000D01*
%TO.N,Net-(APICO_UNO1-PadD9)*%
X153416000Y-77388900D02*
X154026800Y-77999700D01*
X154026800Y-77999700D02*
X154026800Y-112673200D01*
X154026800Y-112673200D02*
X151130000Y-115570000D01*
X153416000Y-76200000D02*
X153416000Y-77388900D01*
%TO.N,Net-(APICO_UNO1-PadD8)*%
X146050000Y-115570000D02*
X147896500Y-117416500D01*
X147896500Y-117416500D02*
X151901700Y-117416500D01*
X151901700Y-117416500D02*
X155956000Y-113362200D01*
X155956000Y-113362200D02*
X155956000Y-76200000D01*
%TO.N,Net-(APICO_UNO1-PadD7)*%
X160020000Y-76200000D02*
X158831100Y-76200000D01*
X140970000Y-115570000D02*
X153575400Y-102964600D01*
X153575400Y-102964600D02*
X153575400Y-78286800D01*
X153575400Y-78286800D02*
X152146000Y-76857400D01*
X152146000Y-76857400D02*
X152146000Y-75775400D01*
X152146000Y-75775400D02*
X152910300Y-75011100D01*
X152910300Y-75011100D02*
X157642200Y-75011100D01*
X157642200Y-75011100D02*
X158831100Y-76200000D01*
%TD*%
M02*
